<?xml version="1.0" standalone="no"?>
<!DOCTYPE svg PUBLIC "-//W3C//DTD SVG 20010904//EN"
 "http://www.w3.org/TR/2001/REC-SVG-20010904/DTD/svg10.dtd">
<svg version="1.0" xmlns="http://www.w3.org/2000/svg"
 width="1280.000000pt" height="1141.000000pt" viewBox="0 0 1280.000000 1141.000000"
 preserveAspectRatio="xMidYMid meet">
<metadata>
Created by potrace 1.15, written by Peter Selinger 2001-2017
</metadata>
<g transform="translate(0.000000,1141.000000) scale(0.100000,-0.100000)"
fill="#000000" stroke="none">
<path d="M6100 11404 c-1445 -84 -2724 -596 -3820 -1529 -171 -146 -588 -568
-734 -744 -1157 -1389 -1692 -3139 -1511 -4936 148 -1463 802 -2874 1809
-3902 104 -107 111 -112 128 -96 10 9 18 20 18 25 0 5 -62 74 -139 153 -574
596 -1057 1363 -1362 2162 -451 1183 -548 2513 -273 3757 335 1519 1196 2863
2427 3792 885 668 1923 1086 3022 1218 250 30 430 40 735 40 568 0 1022 -57
1560 -195 2185 -561 3935 -2307 4543 -4529 109 -399 174 -762 213 -1205 21
-233 24 -797 5 -1025 -66 -813 -252 -1539 -580 -2260 -271 -594 -698 -1233
-1135 -1697 -53 -57 -96 -107 -96 -111 0 -5 8 -16 18 -25 17 -16 22 -12 83 51
208 214 454 521 651 812 1000 1474 1359 3278 1003 5045 -217 1076 -694 2065
-1411 2926 -146 176 -563 598 -734 744 -1029 876 -2241 1389 -3566 1511 -160
14 -713 26 -854 18z"/>
<path d="M6125 11284 c-27 -2 -120 -8 -205 -14 -560 -40 -1199 -185 -1738
-394 -1950 -759 -3417 -2472 -3881 -4533 -115 -514 -156 -887 -156 -1448 0
-446 21 -714 86 -1095 187 -1096 659 -2136 1358 -2990 110 -134 299 -345 390
-435 l71 -70 26 27 27 26 -156 169 c-484 522 -851 1064 -1132 1671 -324 700
-507 1400 -577 2212 -16 186 -16 781 0 970 77 903 295 1673 691 2445 314 613
707 1146 1202 1630 933 914 2124 1506 3402 1690 310 44 516 58 867 58 351 0
557 -14 867 -58 1830 -264 3443 -1352 4418 -2980 97 -161 275 -507 351 -680
295 -676 460 -1337 526 -2105 16 -190 16 -783 -1 -975 -48 -566 -154 -1083
-324 -1580 -286 -838 -741 -1602 -1346 -2260 l-101 -110 28 -22 c15 -12 30
-22 34 -23 11 0 197 204 315 345 787 944 1292 2106 1442 3321 39 315 46 434
46 819 0 457 -23 738 -91 1125 -346 1977 -1589 3679 -3349 4586 -710 366
-1469 586 -2271 660 -158 14 -707 26 -819 18z"/>
<path d="M6085 10069 c-1032 -65 -2035 -456 -2850 -1113 -986 -793 -1664
-1952 -1874 -3201 -86 -514 -98 -1056 -35 -1570 117 -951 505 -1869 1110
-2632 85 -106 288 -335 351 -396 l39 -37 28 29 28 30 -94 98 c-738 771 -1222
1779 -1373 2856 -58 414 -60 967 -5 1397 82 646 302 1311 617 1870 619 1095
1600 1923 2753 2322 1246 432 2603 350 3785 -228 1144 -558 2048 -1544 2512
-2739 238 -612 352 -1231 353 -1905 0 -655 -112 -1268 -340 -1865 -233 -611
-616 -1226 -1042 -1671 -37 -40 -68 -76 -68 -81 0 -5 12 -20 26 -34 l26 -24
71 75 c690 735 1159 1681 1336 2700 84 480 97 1068 35 1565 -258 2072 -1708
3791 -3679 4365 -546 159 -1143 225 -1710 189z"/>
<path d="M6030 9904 c-628 -49 -1186 -201 -1755 -478 -1063 -517 -1914 -1411
-2392 -2516 -213 -491 -334 -965 -398 -1560 -27 -255 -23 -748 10 -1037 126
-1119 601 -2141 1368 -2948 l85 -90 23 23 24 22 -86 88 c-201 205 -418 481
-595 757 -116 180 -111 163 -68 248 124 245 341 421 609 493 56 15 103 19 235
18 150 0 173 -3 253 -27 331 -102 570 -352 656 -687 18 -68 27 -209 21 -294
-6 -68 -10 -79 -46 -123 -69 -85 -455 -467 -574 -568 -110 -94 -150 -124 -436
-335 -207 -152 -542 -496 -745 -765 l-43 -57 29 -24 c17 -13 32 -24 35 -23 3
0 30 32 60 72 175 230 428 501 600 644 47 38 144 112 215 163 373 269 712 588
1045 985 225 269 468 620 690 1000 68 116 128 219 135 230 7 11 67 53 133 93
110 66 124 78 160 135 469 748 459 734 655 923 125 122 283 256 363 309 27 18
117 63 198 100 116 52 151 63 157 53 5 -7 115 -197 245 -423 l236 -410 111
-85 c147 -114 352 -316 415 -411 28 -42 121 -197 207 -345 203 -349 259 -431
401 -594 156 -178 761 -784 894 -895 151 -125 504 -484 1337 -1358 l84 -88 30
21 c16 12 29 25 29 29 0 17 -979 1033 -1230 1276 -74 72 -180 170 -235 217
-55 48 -163 148 -240 222 l-140 135 798 1 799 0 -48 -67 c-116 -164 -278 -362
-411 -503 l-77 -82 24 -20 25 -20 64 68 c734 794 1194 1776 1325 2829 40 315
51 761 27 1050 -65 776 -272 1453 -653 2136 -232 416 -592 869 -957 1203 -230
211 -346 302 -616 485 -461 311 -1021 558 -1560 686 -488 116 -1016 158 -1505
119z m626 -54 c99 -6 253 -20 344 -31 175 -22 509 -85 524 -99 8 -8 -1292
-2251 -1309 -2257 -6 -1 -26 21 -45 49 -84 126 -131 155 -202 125 -19 -8 -77
-46 -129 -84 -122 -91 -181 -127 -266 -162 l-69 -28 -13 29 c-37 82 -193 77
-272 -9 -36 -38 -59 -86 -59 -122 0 -45 59 -104 144 -147 39 -19 86 -46 105
-59 43 -32 92 -45 161 -45 68 1 115 17 183 64 34 23 71 39 103 44 60 9 154 4
154 -10 0 -5 -168 -298 -374 -651 -205 -353 -757 -1301 -1226 -2107 -469 -806
-854 -1466 -855 -1468 -1 -1 -26 8 -56 22 -30 13 -62 26 -71 29 -15 5 -13 18
22 124 37 114 119 366 269 826 39 119 103 315 142 435 39 119 102 313 140 430
38 116 100 308 138 425 38 116 129 394 201 617 72 223 167 514 211 648 43 133
115 351 158 485 44 133 139 424 211 647 72 223 162 500 200 615 76 232 176
538 281 862 38 117 100 309 139 425 38 117 76 237 86 266 9 29 20 55 25 58 17
10 311 44 459 53 212 12 345 12 546 1z m-1049 -67 c-5 -8 -53 -155 -357 -1083
-100 -305 -190 -580 -200 -610 -10 -30 -100 -305 -200 -610 -254 -775 -379
-1156 -400 -1220 -10 -30 -100 -305 -200 -610 -100 -305 -231 -706 -292 -890
-60 -184 -150 -456 -198 -605 -49 -148 -138 -421 -199 -605 -60 -184 -128
-393 -151 -463 -41 -127 -42 -129 -68 -123 -15 3 -48 9 -74 12 -42 6 -48 10
-48 30 0 13 14 189 30 391 17 202 44 535 60 738 17 204 43 537 60 740 17 204
44 537 60 740 16 204 43 537 60 740 17 204 44 537 60 740 16 204 43 537 60
740 17 204 44 541 60 750 17 209 33 395 35 413 6 35 58 74 240 182 469 277
963 469 1490 580 148 31 179 35 172 23z m2114 -112 c524 -150 1007 -383 1466
-709 90 -64 92 -66 75 -86 -9 -11 -104 -117 -211 -236 -107 -118 -195 -216
-196 -218 -1 -1 -34 3 -72 10 -65 11 -76 10 -138 -10 -214 -71 -346 -295 -266
-451 22 -43 22 -43 3 -65 -10 -11 -191 -212 -402 -444 -374 -413 -384 -424
-414 -417 -17 3 -67 11 -110 17 -77 10 -80 10 -98 -13 -47 -60 -62 -103 -66
-196 l-4 -91 -72 -7 c-72 -7 -146 -33 -179 -62 -10 -9 -30 -38 -44 -65 -24
-43 -31 -49 -92 -69 -166 -55 -251 -161 -252 -314 0 -69 -2 -75 -19 -70 -10 3
-51 6 -91 6 -60 0 -82 -5 -135 -31 l-62 -30 -64 34 c-147 81 -246 67 -283 -41
-12 -34 -19 -39 -67 -54 -148 -44 -238 -141 -238 -256 0 -36 18 -92 36 -114 8
-8 14 -18 14 -21 0 -3 -23 -23 -51 -44 -47 -37 -50 -41 -44 -74 15 -77 109
-215 208 -305 l60 -55 -19 -22 c-28 -32 -2057 -2272 -2120 -2341 l-54 -58 -60
43 c-33 23 -60 45 -60 48 0 3 553 959 1229 2125 l1228 2120 106 -4 c115 -3
179 11 247 54 105 68 159 200 115 285 -29 56 -79 63 -190 29 -37 -11 -69 -19
-71 -17 -6 7 1301 2257 1311 2258 6 0 71 -17 146 -39z m-4061 -697 c0 -9 -25
-316 -55 -683 -69 -837 -135 -1631 -180 -2186 -20 -236 -49 -592 -65 -790 -85
-1035 -103 -1255 -135 -1650 -19 -236 -40 -477 -45 -534 -6 -58 -10 -113 -10
-123 0 -16 -8 -18 -77 -15 l-77 2 -52 485 c-29 267 -86 805 -128 1195 -42 391
-114 1066 -160 1500 -47 435 -106 991 -132 1236 l-48 447 58 77 c183 243 497
575 729 770 122 104 356 283 370 284 4 1 7 -6 7 -15z m5750 -181 c435 -352
803 -767 1099 -1237 34 -54 61 -99 59 -100 -2 -1 -36 -26 -76 -55 -41 -29 -75
-51 -75 -49 -1 2 -37 73 -80 158 -81 162 -104 240 -93 313 5 29 1 48 -16 78
-26 48 -66 74 -183 123 -172 71 -206 103 -223 208 -10 66 -48 133 -105 189
-88 84 -217 119 -368 99 -96 -13 -250 -62 -358 -113 -61 -29 -77 -33 -92 -24
-11 7 -19 14 -19 17 0 9 420 470 428 470 5 0 50 -35 102 -77z m166 -354 c98
-37 174 -131 187 -232 15 -114 75 -168 272 -246 44 -18 94 -43 111 -56 30 -23
31 -27 37 -122 6 -111 26 -169 99 -298 25 -44 56 -109 68 -143 21 -57 22 -68
10 -100 -11 -32 -11 -37 6 -49 10 -7 21 -13 26 -13 16 0 45 75 41 106 -5 29 0
35 73 88 l78 56 24 -37 c51 -84 251 -497 301 -623 158 -398 268 -815 321
-1220 15 -111 38 -373 34 -381 -2 -4 -32 -10 -66 -13 -35 -4 -205 -27 -378
-51 -370 -52 -480 -63 -701 -74 -139 -7 -175 -12 -234 -34 -167 -62 -344 -70
-730 -36 -206 19 -250 20 -310 9 -126 -22 -289 -23 -510 -4 -245 21 -516 24
-594 6 -38 -9 -63 -10 -85 -3 -17 6 -143 12 -281 14 -260 3 -287 7 -332 49
-18 17 -23 33 -23 70 0 86 105 224 204 269 55 25 91 24 153 -5 l52 -24 6 41
c10 65 43 126 78 144 23 11 47 14 93 10 59 -6 62 -5 75 21 8 17 14 67 15 132
l2 105 42 29 c24 17 61 31 86 34 43 4 46 3 97 -49 l52 -54 72 0 c84 0 116 -18
148 -81 24 -47 27 -179 6 -286 -13 -68 -13 -68 -47 -68 -27 0 -34 -4 -34 -20
0 -43 68 -77 107 -52 20 12 47 181 47 297 1 99 -2 115 -24 160 l-26 49 70 24
c175 59 337 68 519 31 199 -40 311 -103 384 -218 l48 -74 5 109 c9 179 26 195
224 204 l129 5 -62 44 c-78 54 -114 103 -135 183 -21 77 -36 276 -24 301 14
29 123 104 186 128 83 33 226 33 299 0 86 -38 162 -132 194 -239 9 -30 17 -41
27 -37 7 3 21 5 29 5 22 0 11 49 -32 137 -43 87 -122 163 -205 194 -172 67
-388 12 -528 -133 l-43 -45 10 -134 c6 -74 17 -156 25 -184 14 -55 50 -130 66
-140 21 -13 8 -25 -27 -25 -81 -1 -160 -61 -184 -139 l-11 -38 -63 43 c-202
135 -563 177 -806 94 -79 -28 -103 -31 -201 -31 l-111 0 -36 34 c-85 82 -168
89 -265 23 -29 -20 -30 -20 -40 -1 -6 11 -27 37 -47 57 -31 32 -43 38 -80 38
-39 0 -48 -5 -95 -54 -52 -53 -64 -60 -113 -57 -27 1 -27 8 4 151 21 96 14
125 -38 164 -40 29 -158 28 -190 -2 -36 -34 -108 -62 -161 -62 -27 0 -88 9
-136 21 -99 23 -100 23 -100 123 0 82 28 136 96 187 31 24 80 49 118 60 66 20
80 32 129 108 29 46 69 68 144 80 93 15 100 11 109 -66 10 -93 0 -212 -20
-251 -9 -18 -34 -51 -54 -74 -35 -39 -36 -41 -17 -55 56 -42 109 -66 145 -66
78 0 114 47 175 228 31 90 76 185 88 185 1 0 1 -18 -1 -39 -6 -58 20 -71 170
-83 68 -6 125 -12 127 -14 3 -3 -12 -22 -33 -43 l-37 -38 20 -24 20 -24 36 35
c46 43 68 85 60 111 -11 33 -58 49 -179 57 -64 5 -119 12 -123 16 -4 3 17 31
46 60 60 61 57 66 -37 66 -105 0 -151 -54 -218 -252 -54 -164 -85 -197 -154
-168 l-29 12 25 40 c39 62 55 116 56 193 1 86 -9 235 -16 243 -3 3 -6 42 -6
87 0 67 4 90 26 133 21 43 30 51 47 47 12 -2 53 -9 90 -15 106 -17 170 -45
215 -94 41 -45 56 -80 67 -160 l7 -48 80 4 c70 3 82 6 99 27 31 38 33 70 14
176 -48 263 -31 332 105 439 84 67 181 109 257 114 59 4 64 3 94 -27 32 -32
32 -33 26 -109 -3 -42 -13 -96 -21 -118 -31 -86 7 -138 148 -199 112 -49 111
-48 72 -103 -42 -59 -61 -98 -69 -139 -5 -27 -3 -32 20 -38 26 -6 43 6 43 33
0 25 40 90 106 173 153 193 148 262 -25 378 -148 100 -182 160 -226 401 -27
147 -48 217 -85 289 -29 57 -28 117 2 183 52 114 178 200 293 201 77 1 129
-27 190 -101 53 -64 60 -97 52 -255 -8 -177 14 -237 84 -237 31 0 92 24 130
50 24 18 28 18 120 0 227 -44 352 -98 463 -200 l43 -40 22 24 22 23 -39 35
c-126 113 -292 185 -523 223 l-95 17 -50 -32 c-28 -17 -64 -32 -80 -33 l-29
-2 -5 186 -5 186 -33 53 c-31 50 -32 55 -17 66 27 20 187 82 267 103 104 28
249 28 324 0z m-1112 -749 c53 -263 99 -343 255 -444 129 -83 134 -124 35
-255 -2 -2 -18 6 -36 17 -18 11 -62 32 -97 46 -74 30 -111 60 -111 90 0 12 7
43 15 70 8 27 16 80 16 117 1 80 -17 120 -72 157 -30 21 -43 23 -116 20 -72
-4 -93 -10 -167 -46 -108 -54 -224 -159 -255 -232 -29 -67 -29 -171 -1 -320
27 -139 22 -160 -40 -160 -35 0 -40 3 -40 23 0 13 -8 46 -17 73 -20 60 -102
146 -156 163 -21 7 -37 17 -35 21 2 5 176 200 388 434 264 292 387 421 392
412 4 -7 23 -91 42 -186z m-5994 79 c0 -17 36 -371 80 -787 43 -417 134 -1277
200 -1912 66 -635 143 -1362 169 -1615 27 -253 48 -461 47 -462 -3 -3 -150
-33 -151 -30 0 1 -6 18 -12 37 -27 84 -425 1295 -525 1600 -60 184 -164 499
-230 700 -66 201 -164 500 -219 665 -54 166 -99 312 -99 326 0 31 91 303 161
479 64 163 253 544 344 695 89 147 216 335 226 335 5 0 9 -14 9 -31z m3599
-197 c20 -21 52 -60 71 -87 19 -26 47 -58 62 -69 l28 -20 93 27 c114 33 141
34 161 5 36 -51 8 -147 -61 -209 -59 -53 -136 -79 -236 -79 -72 0 -85 3 -101
21 -16 19 -20 20 -32 7 -12 -11 -29 -13 -82 -6 -77 9 -161 -3 -202 -29 -95
-61 -121 -74 -163 -79 -70 -10 -131 3 -185 40 -26 18 -73 46 -105 60 -65 31
-117 79 -117 107 0 42 53 110 107 138 12 6 42 11 66 11 61 0 88 -23 94 -82 l5
-47 37 28 c20 16 56 36 81 45 72 28 158 79 255 152 94 71 149 104 173 104 8 0
31 -17 51 -38z m-4131 -2072 c141 -432 212 -650 280 -860 39 -118 130 -397
202 -620 72 -223 167 -513 210 -645 113 -346 140 -429 137 -430 -1 0 -27 -11
-57 -24 -30 -12 -62 -25 -70 -27 -11 -4 -163 249 -562 937 l-548 941 0 187 c0
379 57 811 157 1190 l17 65 82 -250 c45 -137 114 -346 152 -464z m4261 624
c18 -8 60 -30 92 -50 l59 -36 33 28 c78 66 158 70 357 19 195 -50 276 -47 374
16 71 44 158 42 170 -4 3 -13 -3 -60 -14 -106 -31 -129 -27 -162 23 -187 21
-12 42 -14 76 -9 60 9 75 18 101 60 26 42 54 59 85 51 50 -13 99 -175 81 -270
-7 -36 -7 -36 -57 -36 -86 0 -150 -43 -183 -122 l-16 -37 -64 6 c-55 5 -71 2
-121 -21 -67 -30 -158 -119 -195 -189 -31 -58 -53 -66 -200 -74 -81 -4 -140 0
-255 17 -111 17 -186 22 -290 20 -77 -1 -157 -2 -177 -2 -85 0 -221 106 -310
241 -77 118 -76 126 27 176 64 32 142 33 201 4 67 -32 72 -43 34 -85 -99 -113
-49 -218 97 -205 13 1 69 -14 125 -33 201 -69 329 -71 564 -11 156 40 224 69
272 117 49 47 65 84 64 152 0 158 -150 306 -309 306 -35 0 -76 -6 -91 -14 -15
-7 -71 -16 -127 -18 -144 -7 -198 -40 -198 -121 l0 -42 -101 0 c-91 0 -107 -3
-159 -28 l-57 -29 -36 32 c-56 49 -141 73 -212 60 -53 -9 -80 3 -98 47 -48
113 49 227 221 263 53 11 54 12 60 53 14 84 56 100 154 61z m736 -345 c51 -24
120 -95 141 -144 8 -19 14 -56 14 -82 0 -96 -59 -145 -234 -194 -272 -75 -393
-74 -619 7 -38 13 -90 24 -117 24 -62 0 -80 7 -80 33 0 50 89 134 180 168 75
28 142 25 219 -11 35 -17 65 -29 67 -27 2 2 0 28 -6 57 -26 135 -8 155 140
155 69 1 103 5 125 18 42 23 116 21 170 -4z m-915 -634 c24 -9 79 -11 195 -8
133 5 186 2 313 -17 151 -22 359 -25 403 -6 13 6 18 -1 22 -32 9 -51 44 -103
86 -124 l33 -16 -93 -69 c-52 -37 -123 -89 -158 -115 l-65 -48 -38 69 -39 69
-187 -84 c-246 -110 -321 -163 -585 -408 -154 -142 -249 -256 -362 -434 l-100
-156 -785 -568 c-432 -312 -790 -566 -795 -565 -6 1 -32 25 -58 53 l-48 52
1098 1216 c792 877 1102 1214 1113 1210 8 -4 31 -12 50 -19z m5250 -287 c0
-255 -16 -487 -50 -717 -25 -173 -59 -353 -69 -370 -7 -11 -3153 -681 -3197
-681 -8 0 -40 45 -71 100 -92 160 -186 299 -256 380 -62 71 -236 232 -298 275
-16 11 -27 24 -26 28 1 5 506 233 1122 508 967 431 1125 499 1166 499 88 0
203 21 306 56 83 28 116 34 185 34 179 0 385 22 933 100 110 15 212 28 228 29
l27 1 0 -242z m-3633 52 c38 -8 68 -8 115 1 88 17 327 15 563 -6 214 -19 447
-17 542 5 43 10 94 8 285 -9 128 -12 248 -22 267 -23 28 -3 -177 -97 -1045
-482 -593 -264 -1088 -481 -1099 -483 -11 -2 -32 7 -47 19 -34 29 -442 738
-431 749 4 4 80 61 168 126 l160 118 235 -2 c129 -2 258 -8 287 -13z m-5577
-1140 c282 -487 515 -890 517 -897 2 -6 -23 -30 -57 -53 l-62 -42 -33 33 c-31
32 -689 761 -729 806 -42 50 -117 461 -151 826 -17 188 -19 235 -6 222 5 -6
239 -408 521 -895z m9075 -82 c-4 -18 -31 -116 -60 -218 -134 -470 -335 -910
-612 -1342 l-43 -68 -833 0 -833 0 -195 208 c-292 309 -331 355 -416 482 -67
100 -176 291 -170 297 3 2 619 135 1368 294 750 159 1454 309 1564 333 250 55
238 54 230 14z m-5856 -187 l-100 -160 -124 -76 -124 -76 -47 -82 c-155 -272
-195 -334 -222 -346 -75 -35 -681 -301 -685 -301 -3 0 -23 29 -45 63 l-39 64
741 536 c407 296 742 537 743 537 1 0 -43 -72 -98 -159z m-3100 -491 c102
-113 197 -218 212 -235 l28 -30 -54 -56 -54 -56 -197 142 -197 142 -39 99
c-63 163 -168 480 -168 507 0 6 105 -109 469 -513z m-61 -296 c81 -59 151
-110 155 -114 4 -4 -11 -36 -34 -72 l-41 -66 -40 16 c-35 14 -45 25 -85 106
-63 125 -113 236 -106 236 2 0 71 -48 151 -106z m2407 -197 l-116 -175 -72
-16 c-185 -41 -280 -57 -287 -49 -15 17 -53 137 -44 140 5 2 149 66 319 142
171 76 312 137 313 135 2 -1 -49 -81 -113 -177z m-186 -269 c-13 -18 -50 -68
-82 -111 l-60 -78 -56 3 -55 3 -12 75 c-6 41 -10 77 -8 79 4 4 254 59 277 60
17 1 16 -2 -4 -31z m-187 -243 c-13 -22 -63 -78 -66 -74 -1 2 -1 22 1 44 4 38
7 40 38 41 24 0 32 -3 27 -11z"/>
<path d="M8250 6357 c-51 -16 -129 -102 -172 -188 l-36 -74 21 -12 c12 -7 25
-12 29 -13 4 0 21 30 39 67 41 86 100 150 150 163 50 14 114 -12 162 -65 l33
-36 25 20 24 20 -40 41 c-71 73 -159 102 -235 77z"/>
<path d="M6391 4313 l-199 -178 -98 -204 c-55 -111 -100 -206 -102 -210 -1 -4
13 -15 33 -24 l35 -17 105 208 104 207 191 168 190 169 -21 29 c-11 16 -24 29
-29 29 -5 0 -99 -80 -209 -177z"/>
<path d="M5499 3217 l-177 -102 -223 -354 c-123 -195 -225 -361 -227 -367 -2
-7 11 -20 29 -30 28 -14 34 -15 43 -2 6 8 106 166 221 350 197 315 213 338
260 365 28 17 105 63 173 102 129 76 128 74 90 123 -12 16 -28 9 -189 -85z"/>
</g>
</svg>
