<?xml version="1.0" encoding="utf-8"?>
<!-- Generator: Adobe Illustrator 26.2.1, SVG Export Plug-In . SVG Version: 6.00 Build 0)  -->
<svg version="1.1" id="Layer_1" xmlns="http://www.w3.org/2000/svg" xmlns:xlink="http://www.w3.org/1999/xlink" x="0px" y="0px"
	 viewBox="0 0 32 32" style="enable-background:new 0 0 32 32;" xml:space="preserve">
<style type="text/css">
	.st0{fill:#FFFFFF;}
</style>
<path class="st0" d="M16,8c-2.8,0-5,2.2-5,5s2.2,5,5,5s5-2.2,5-5S18.8,8,16,8z"/>
<path class="st0" d="M16,2C8.3,2,2,8.3,2,16s6.3,14,14,14s14-6.3,14-14C30,8.3,23.7,2,16,2z M24,24.9c0-2.7-2.3-4.9-5-4.9h-6
	c-2.7,0-5,2.2-5,4.9C3.1,20.5,2.6,12.9,7,8S19,2.6,24,7s5.4,12,1,16.9C24.6,24.3,24.3,24.6,24,24.9z"/>
</svg>
